<svg xmlns="http://www.w3.org/2000/svg" viewBox="0 0 32 32" fill="none">
  <rect x="2" y="2" width="28" height="28" rx="6" fill="white"/>
  <path d="M21.3 14.4c.3-2-1.2-3-3.3-3.7l.7-2.8-1.7-.4-.7 2.7c-.4-.1-.9-.2-1.3-.3l.7-2.8-1.7-.4-.7 2.8c-.4-.1-.7-.2-1.1-.3l-2.4-.6-.5 1.8s1.3.3 1.3.3c.7.2.9.6.8 1l-.8 3.3c.1 0 .2 0 .3.1l-.3-.1-1.2 4.7c-.1.2-.3.6-.9.5 0 0-1.3-.3-1.3-.3l-.8 1.9 2.2.5c.4.1.8.2 1.2.3l-.7 2.9 1.7.4.7-2.8c.4.1.9.2 1.3.3l-.7 2.8 1.7.4.7-2.9c3 .6 5.2-.2 6.1-2.5.7-1.9 0-3.1-1.4-3.8 1-.2 1.8-.9 2-2.2zM18 20.4c-.5 2.1-4.1 1-5.2.7l.9-3.7c1.1.3 4.8.9 4.3 3zm.5-6.1c-.5 1.8-3.3.9-4.2.7l.8-3.4c.9.2 3.9.7 3.4 2.7z" fill="black"/>
</svg>
